<svg width="10" height="12" viewBox="0 0 10 12" fill="none" xmlns="http://www.w3.org/2000/svg">
<path d="M5 5.7C4.57376 5.7 4.16498 5.54197 3.86358 5.26066C3.56218 4.97936 3.39286 4.59782 3.39286 4.2C3.39286 3.80218 3.56218 3.42064 3.86358 3.13934C4.16498 2.85804 4.57376 2.7 5 2.7C5.42624 2.7 5.83502 2.85804 6.13642 3.13934C6.43782 3.42064 6.60714 3.80218 6.60714 4.2C6.60714 4.39698 6.56557 4.59204 6.48481 4.77403C6.40404 4.95601 6.28566 5.12137 6.13642 5.26066C5.98718 5.39995 5.81001 5.51044 5.61503 5.58582C5.42004 5.6612 5.21105 5.7 5 5.7ZM5 0C3.80653 0 2.66193 0.442499 1.81802 1.23015C0.974106 2.0178 0.5 3.08609 0.5 4.2C0.5 7.35 5 12 5 12C5 12 9.5 7.35 9.5 4.2C9.5 3.08609 9.02589 2.0178 8.18198 1.23015C7.33807 0.442499 6.19347 0 5 0Z" fill="#008080"/>
<ellipse cx="5.00127" cy="4.43427" rx="3.44118" ry="3.3913" fill="#008080"/>
<path fill-rule="evenodd" clip-rule="evenodd" d="M4.99984 6.26133C5.31269 6.26133 5.62248 6.2006 5.91152 6.08261C6.20057 5.96462 6.46319 5.79168 6.68442 5.57366C6.90564 5.35565 7.08112 5.09683 7.20085 4.81197C7.32057 4.52712 7.38219 4.22182 7.38219 3.9135C7.38219 3.60518 7.32057 3.29988 7.20085 3.01503C7.08112 2.73017 6.90564 2.47135 6.68442 2.25334C6.46319 2.03532 6.20057 1.86238 5.91152 1.74439C5.62248 1.6264 5.31269 1.56567 4.99984 1.56567C4.368 1.56567 3.76204 1.81303 3.31526 2.25334C2.86848 2.69364 2.61749 3.29082 2.61749 3.9135C2.61749 4.53618 2.86848 5.13336 3.31526 5.57366C3.76204 6.01397 4.368 6.26133 4.99984 6.26133ZM4.93843 4.86307L6.26196 3.29785L5.85537 2.96393L4.71713 4.30976L4.12816 3.72907L3.75387 4.09793L4.54798 4.88054L4.75287 5.08246L4.93843 4.86307Z" fill="white"/>
</svg>
