<svg width="12" height="12" viewBox="0 0 12 12" fill="none" xmlns="http://www.w3.org/2000/svg">
<g clip-path="url(#clip0_1_279)">
<path d="M5.40001 8.34999H3.95V7.24999H7.20001C7.39327 7.24999 7.55 7.09333 7.55 6.89999C7.55 6.70672 7.39328 6.54999 7.20001 6.54999H4.80001C3.99918 6.54999 3.35 5.9008 3.35 5.09999C3.35 4.2992 3.99918 3.65001 4.80001 3.65001H5.40001H5.45001V3.60001V2.45H6.55001V3.60001V3.65001H6.60001H8.05V4.74999H4.80001C4.6067 4.74999 4.45 4.90672 4.45 5.09999C4.45 5.29333 4.6067 5.44999 4.80001 5.44999H7.20001C8.00081 5.44999 8.65 6.09919 8.65 6.89999C8.65 7.7008 8.00081 8.34999 7.20001 8.34999H6.60001H6.55001V8.39999V9.55H5.45001V8.39999V8.34999H5.40001ZM6.00001 11.95C2.71391 11.95 0.05 9.28612 0.05 5.99999C0.05 2.71391 2.71391 0.05 6.00001 0.05C9.28607 0.05 11.95 2.71391 11.95 5.99999C11.95 9.28612 9.28607 11.95 6.00001 11.95ZM6.00001 10.85C8.6786 10.85 10.85 8.67859 10.85 5.99999C10.85 3.32142 8.6786 1.15 6.00001 1.15C3.32141 1.15 1.15 3.32142 1.15 5.99999C1.15 8.67859 3.32141 10.85 6.00001 10.85Z" fill="white" fill-opacity="0.7" stroke="black" stroke-width="0.1"/>
</g>
<defs>
<clipPath id="clip0_1_279">
<rect width="12" height="12" fill="white"/>
</clipPath>
</defs>
</svg>
