<svg width="16" height="16" viewBox="0 0 16 16" fill="none" xmlns="http://www.w3.org/2000/svg">
<path d="M12.4966 12.5234C12.8058 12.2163 13.3015 12.2163 13.6107 12.5234L15.6544 14.1731H15.6899C16.1034 14.5911 16.1034 15.2686 15.6899 15.6866C15.2764 16.1045 14.6061 16.1045 14.1926 15.6866L12.4966 13.7428L12.4322 13.6702C12.3123 13.5184 12.2461 13.3292 12.2461 13.1331C12.2461 12.9043 12.3362 12.6849 12.4966 12.5234ZM6.86211 0C8.68206 0 10.4275 0.730749 11.7144 2.03149C13.0013 3.33223 13.7242 5.09642 13.7242 6.93594C13.7242 10.7666 10.652 13.8719 6.86211 13.8719C3.07227 13.8719 0 10.7666 0 6.93594C0 3.10533 3.07227 0 6.86211 0Z" fill="#008080"/>
</svg>
